<svg id="Layer_1" data-name="Layer 1" xmlns="http://www.w3.org/2000/svg" viewBox="0 0 247.49 174.09"><defs><style>.cls-1{fill:#7fb539;}.cls-1,.cls-2,.cls-3{fill-rule:evenodd;}.cls-2{fill:#5ca038;}.cls-3{fill:#2d7d2f;}</style></defs><path class="cls-1" d="M117.53,25.72ZM169,90.18c.08,1.23.47,5.89-5.28,15.49s-11.25,11.74-15.91,10.39c-4.15-1.2-5.14-2-8.29-3.63.21.18,6.55,6.15,13.52,6.07,9.15-.11,19.72-21.94,18.86-28-.18-1.28-1.13-1.84.5-4.32,8.86-13.34.58-29.66.58-29.66.34,1.82.53,12.16.48,14.17-.23,10-4.79,14.78-5,16.65s.49,1.57.57,2.81Zm-5.16-43.42c-7.69,22.69-27.42,17.63-38.43,30.6s-.58,27.47,3.89,31.94c-2.17-24.17,9.17-25.24,28.08-40.84,8.14-6.72,6.46-21.7,6.46-21.7Zm-70.15,4a16.88,16.88,0,0,1,16.83-16.92h.38c-.43.71-.83,1.43-1.21,2.17a40.68,40.68,0,0,1,68.55,21.38,36.42,36.42,0,0,0-60.71-31.67,24.21,24.21,0,0,0-8.59-1.57,24.57,24.57,0,0,0-11.1,46.41,16.09,16.09,0,0,0,.26,2.54c1.42,7.75,9.55,15.25,9.55,15.25S98.1,73.1,101.71,59a19.61,19.61,0,0,0-2.42,4.32,16.9,16.9,0,0,1-5.6-12.6Z" transform="translate(-7.8 -16.15)"/><path class="cls-2" d="M137.3,135.08Zm21.31,9.47c.47-20.06-26.77-24.12-39.29-31.92-14.73-9.17-11.63-25.32-11.63-25.32-4.22,10.75-4.77,22.26,1.3,32.32,6.23,10.35,19.5,11.7,28.31,15.45,0,0,20.74,6.74,20.6,14a16.6,16.6,0,0,0,.71-4.55Z" transform="translate(-7.8 -16.15)"/><path class="cls-3" d="M77.8,168.69v-38.5H65.05v34.93H54.32V137.89a50.35,50.35,0,0,0-1.39-12,26.53,26.53,0,0,0-4.55-9.79c-8.84-11.67-25.36-11-34,0a28.65,28.65,0,0,0-4.93,9.79,42.9,42.9,0,0,0-1.64,12v44.54c8.12,0,12.46-4.33,13.67-12.15V143.66c.07-3,0-6.31.17-9.62,0-7,.91-17.48,9.5-17.62,10.2-.17,9.5,14.84,9.5,22v36.79H77.8v-6.55Zm84-35.86v42h93.52v-42a25.42,25.42,0,0,0-2-10.22,22.55,22.55,0,0,0-5.62-7.88,25.6,25.6,0,0,0-8.5-5.07,30.68,30.68,0,0,0-10.63-1.79,33.34,33.34,0,0,0-11.72,1.92,22.6,22.6,0,0,0-8.57,5.49,24.26,24.26,0,0,0-8.57-5.49,30.61,30.61,0,0,0-11-1.92q-12.89,0-19.89,6.86t-7,18.1Zm13.71-1.65v-.82q0-7.68,3.3-10.83t9.87-3.29a13.84,13.84,0,0,1,6.37,1.3,11.33,11.33,0,0,1,4,3.36,11.94,11.94,0,0,1,2.06,4.59,23.46,23.46,0,0,1,.55,4.87v36.07H191.32c7.17-3.85,7.94-19.88,7.13-26.4a14.76,14.76,0,0,0-10-12.62,13.23,13.23,0,0,0-7.27-.27,9.2,9.2,0,0,0-5.69,4Zm39.91-.82q0-7.68,3.29-10.83t9.87-3.29a13.88,13.88,0,0,1,6.38,1.3,11.29,11.29,0,0,1,4,3.36,11.94,11.94,0,0,1,2.06,4.59,22.8,22.8,0,0,1,.55,4.87v36.07H230.29c8.28-3.61,8.76-20.77,8.07-26.4a14.8,14.8,0,0,0-10-12.62,13.24,13.24,0,0,0-7.27-.27,9.17,9.17,0,0,0-5.69,4v-.82Zm-39.91,36.07v-23q0-6.85,4.8-7.41a4.82,4.82,0,0,1,4.19,1.24,7.47,7.47,0,0,1,1.85,4.11c1.45,9.22.68,25.1-10.84,25.1Zm39.91,0v-24q.27-5.9,4.8-6.45a4.8,4.8,0,0,1,4.18,1.24,7.4,7.4,0,0,1,1.85,4.11c1.48,9.4-.6,24.85-10.83,25.1Zm-60.87-15.69s-.91-6.35-13-10.51a9.09,9.09,0,0,1,1.21,2.7c1.53,5.75-3.76,7.91-8.42,7.91H119.24c-6.95.35-9.45,5.45-9.43,11.68h23.56c13.67,0,14,17.2-3.16,15.74H87c-9.15-.18-12,5.12-12.88,11.68h52.15a48.4,48.4,0,0,0,5,.29c11.08,0,22.22-2.23,25.1-14.58,1.57-6.79-.53-15.72-7.89-18.76a12.33,12.33,0,0,0,6.08-6.15ZM99.6,175.44V108.1c0-.54,0-1.06,0-1.58,0-.32,0-.64,0-1a21.39,21.39,0,1,0-21.38,21,21.66,21.66,0,0,0,7.83-1.46v50.34ZM85.94,105.56A7.72,7.72,0,1,1,78.22,98a7.66,7.66,0,0,1,7.72,7.58Z" transform="translate(-7.8 -16.15)"/></svg>